<svg width="4969" height="4058" viewBox="0 0 4969 4058" fill="none" xmlns="http://www.w3.org/2000/svg">
<path fill-rule="evenodd" clip-rule="evenodd" d="M597.433 154.447C776.384 73.5035 986.149 104.825 1133.65 234.512L1984.5 982.61V610.011C1984.5 413.605 2099.48 235.391 2278.43 154.447C2457.38 73.5035 2667.15 104.825 2814.65 234.512L4495.65 1712.51C4703.03 1894.85 4723.33 2210.78 4540.99 2418.16C4358.66 2625.55 4042.73 2645.85 3835.34 2463.51L2984.5 1715.41V2088.01C2984.5 2284.42 2869.51 2462.63 2690.56 2543.57C2511.61 2624.52 2301.84 2593.2 2154.34 2463.51L1303.5 1715.41V2088.01C1303.5 2364.15 1079.64 2588.01 803.496 2588.01C527.354 2588.01 303.496 2364.15 303.496 2088.01V610.011C303.496 413.605 418.483 235.391 597.433 154.447Z" fill="#0044FF"/>
<path d="M193.496 2088.01V610.01C193.496 370.396 333.78 152.974 552.1 54.2228C770.419 -44.5284 1026.33 -6.31624 1206.28 151.903L1874.5 739.421V610.01C1874.5 370.396 2014.78 152.974 2233.1 54.2228C2451.42 -44.5283 2707.33 -6.31624 2887.28 151.903L4568.28 1629.9C4821.29 1852.36 4846.06 2237.79 4623.6 2490.8C4401.15 2743.8 4015.72 2768.57 3762.71 2546.12L3094.5 1958.6V2088.01C3094.5 2327.62 2954.21 2545.05 2735.89 2643.8C2517.57 2742.55 2261.66 2704.34 2081.71 2546.12L1413.5 1958.6V2088.01C1413.5 2424.9 1140.39 2698.01 803.496 2698.01C466.602 2698.01 193.496 2424.9 193.496 2088.01ZM2094.5 982.61C2094.5 1025.82 2069.2 1065.03 2029.83 1082.83C1990.46 1100.64 1944.31 1093.75 1911.86 1065.22L1061.02 317.121C945.966 215.965 782.349 191.535 642.768 254.671C503.186 317.807 413.496 456.814 413.496 610.01V2088.01C413.496 2303.4 588.105 2478.01 803.496 2478.01C1018.89 2478.01 1193.5 2303.4 1193.5 2088.01V1715.41C1193.5 1672.2 1218.79 1633 1258.16 1615.19C1297.53 1597.38 1343.68 1604.27 1376.13 1632.8L2226.98 2380.9C2342.03 2482.06 2505.64 2506.49 2645.22 2443.35C2784.81 2380.21 2874.5 2241.21 2874.5 2088.01V1715.41C2874.5 1672.2 2899.79 1633 2939.16 1615.19C2978.53 1597.38 3024.68 1604.27 3057.13 1632.8L3907.98 2380.9C4069.73 2523.12 4316.16 2507.29 4458.38 2345.53C4600.61 2183.77 4584.77 1937.35 4423.02 1795.12L2742.02 317.121C2626.97 215.965 2463.35 191.535 2323.77 254.671C2184.19 317.807 2094.5 456.814 2094.5 610.01V982.61Z" fill="white"/>
<path d="M770.384 3215.85C818.301 3215.85 860.603 3225.59 897.29 3245.08C934.725 3263.83 963.925 3293.07 984.888 3332.8C1006.6 3371.78 1017.46 3422.02 1017.46 3483.49V3829.86H842.26V3670.17V3510.48C842.26 3461.75 832.152 3425.76 811.937 3402.52C791.722 3379.28 763.271 3367.66 726.585 3367.66C701.129 3367.66 678.293 3373.66 658.078 3385.65C637.863 3396.9 622.14 3414.14 610.91 3437.38C599.679 3460.63 594.064 3490.24 594.064 3526.22V3829.86H418.867V3510.48C418.867 3461.75 408.759 3425.76 388.544 3402.52C369.078 3379.28 341.001 3367.66 304.315 3367.66C278.859 3367.66 256.023 3373.66 235.808 3385.65C215.593 3396.9 199.87 3414.14 188.64 3437.38C177.409 3460.63 171.794 3490.24 171.794 3526.22V3829.86H0V3224.84H163.933V3390.15L132.487 3341.8C153.451 3300.56 183.025 3269.45 221.209 3248.46C260.141 3226.72 304.315 3215.85 353.729 3215.85C409.134 3215.85 457.425 3230.09 498.604 3258.58C540.532 3286.32 568.234 3329.05 581.71 3386.78L519.942 3369.91C540.157 3322.68 572.351 3285.19 616.525 3257.45C661.447 3229.71 712.734 3215.85 770.384 3215.85Z" fill="white"/>
<path d="M1478.74 3838.85C1409.85 3838.85 1349.21 3825.36 1296.8 3798.37C1245.14 3771.38 1205.08 3734.64 1176.63 3688.16C1148.18 3640.93 1133.96 3587.33 1133.96 3527.35C1133.96 3466.62 1147.81 3413.02 1175.51 3366.54C1203.96 3319.3 1242.52 3282.57 1291.19 3256.33C1339.85 3229.34 1394.88 3215.85 1456.27 3215.85C1515.42 3215.85 1568.58 3228.59 1615.75 3254.08C1663.67 3278.82 1701.48 3314.81 1729.18 3362.04C1756.88 3408.52 1770.73 3464.37 1770.73 3529.6C1770.73 3536.35 1770.36 3544.22 1769.61 3553.21C1768.86 3561.46 1768.11 3569.33 1767.36 3576.83H1276.59V3474.49H1675.27L1607.89 3504.86C1607.89 3473.37 1601.52 3446.01 1588.8 3422.76C1576.07 3399.52 1558.47 3381.53 1536.01 3368.79C1513.55 3355.29 1487.35 3348.54 1457.4 3348.54C1427.45 3348.54 1400.87 3355.29 1377.66 3368.79C1355.2 3381.53 1337.6 3399.9 1324.88 3423.89C1312.15 3447.13 1305.78 3474.87 1305.78 3507.11V3534.1C1305.78 3567.08 1312.9 3596.32 1327.12 3621.81C1342.1 3646.55 1362.69 3665.67 1388.89 3679.17C1415.84 3691.91 1447.29 3698.28 1483.23 3698.28C1515.42 3698.28 1543.5 3693.41 1567.46 3683.66C1592.16 3673.92 1614.63 3659.3 1634.84 3639.81L1728.05 3741.02C1700.35 3772.5 1665.54 3796.87 1623.61 3814.11C1581.68 3830.61 1533.39 3838.85 1478.74 3838.85Z" fill="white"/>
<path d="M2254.61 3215.85C2302.53 3215.85 2345.2 3225.59 2382.64 3245.08C2420.82 3263.83 2450.77 3293.07 2472.48 3332.8C2494.2 3371.78 2505.05 3422.02 2505.05 3483.49V3829.86H2329.86V3510.48C2329.86 3461.75 2319 3425.76 2297.29 3402.52C2276.32 3379.28 2246.38 3367.66 2207.44 3367.66C2179.74 3367.66 2154.66 3373.66 2132.2 3385.65C2110.49 3396.9 2093.27 3414.52 2080.54 3438.51C2068.56 3462.5 2062.57 3493.24 2062.57 3530.72V3829.86H1887.37V3224.84H2054.71V3392.4L2023.26 3341.8C2044.97 3301.31 2076.05 3270.2 2116.48 3248.46C2156.91 3226.72 2202.95 3215.85 2254.61 3215.85Z" fill="white"/>
<path d="M2910.93 3838.85C2839.81 3838.85 2784.4 3820.86 2744.72 3784.87C2705.04 3748.14 2685.2 3693.78 2685.2 3621.81V3091.02H2860.4V3619.56C2860.4 3645.05 2867.13 3664.92 2880.61 3679.17C2894.09 3692.66 2912.43 3699.41 2935.64 3699.41C2963.34 3699.41 2986.93 3691.91 3006.39 3676.92L3053.56 3800.62C3035.59 3813.36 3013.88 3823.11 2988.42 3829.86C2963.72 3835.85 2937.89 3838.85 2910.93 3838.85ZM2591.99 3373.28V3238.34H3010.89V3373.28H2591.99Z" fill="white"/>
<path d="M3420.77 3838.85C3356.38 3838.85 3299.1 3825.36 3248.94 3798.37C3199.52 3771.38 3160.22 3734.64 3131.02 3688.16C3102.57 3640.93 3088.34 3587.33 3088.34 3527.35C3088.34 3466.62 3102.57 3413.02 3131.02 3366.54C3160.22 3319.3 3199.52 3282.57 3248.94 3256.33C3299.1 3229.34 3356.38 3215.85 3420.77 3215.85C3484.41 3215.85 3541.31 3229.34 3591.47 3256.33C3641.64 3282.57 3680.94 3318.93 3709.39 3365.41C3737.84 3411.89 3752.07 3465.87 3752.07 3527.35C3752.07 3587.33 3737.84 3640.93 3709.39 3688.16C3680.94 3734.64 3641.64 3771.38 3591.47 3798.37C3541.31 3825.36 3484.41 3838.85 3420.77 3838.85ZM3420.77 3694.91C3449.97 3694.91 3476.17 3688.16 3499.38 3674.67C3522.59 3661.17 3540.93 3642.05 3554.41 3617.31C3567.89 3591.82 3574.63 3561.84 3574.63 3527.35C3574.63 3492.11 3567.89 3462.12 3554.41 3437.38C3540.93 3412.64 3522.59 3393.53 3499.38 3380.03C3476.17 3366.54 3449.97 3359.79 3420.77 3359.79C3391.57 3359.79 3365.36 3366.54 3342.15 3380.03C3318.94 3393.53 3300.23 3412.64 3286 3437.38C3272.52 3462.12 3265.79 3492.11 3265.79 3527.35C3265.79 3561.84 3272.52 3591.82 3286 3617.31C3300.23 3642.05 3318.94 3661.17 3342.15 3674.67C3365.36 3688.16 3391.57 3694.91 3420.77 3694.91Z" fill="white"/>
<path d="M3869.17 3829.86V3224.84H4036.51V3395.78L4012.93 3346.29C4030.89 3303.56 4059.72 3271.32 4099.4 3249.58C4139.08 3227.09 4187.37 3215.85 4244.28 3215.85V3377.78C4236.79 3377.03 4230.05 3376.66 4224.06 3376.66C4218.07 3375.91 4211.71 3375.53 4204.97 3375.53C4157.05 3375.53 4118.12 3389.4 4088.17 3417.14C4058.97 3444.13 4044.37 3486.49 4044.37 3544.22V3829.86H3869.17Z" fill="white"/>
<path d="M4445.65 4057.02C4414.21 4057.02 4383.14 4052.15 4352.44 4042.4C4321.74 4032.65 4296.66 4019.16 4277.2 4001.91L4341.21 3877.09C4354.69 3889.08 4370.04 3898.46 4387.26 3905.2C4405.22 3911.95 4422.82 3915.32 4440.04 3915.32C4464.75 3915.32 4484.21 3909.33 4498.44 3897.33C4513.41 3886.08 4526.89 3866.97 4538.87 3839.98L4570.31 3765.76L4583.79 3746.64L4800.54 3224.84H4969L4696.1 3866.97C4676.63 3915.7 4654.17 3953.93 4628.71 3981.67C4604.01 4009.41 4576.3 4028.9 4545.61 4040.15C4515.66 4051.4 4482.34 4057.02 4445.65 4057.02ZM4548.98 3853.47L4279.44 3224.84H4460.25L4669.14 3730.9L4548.98 3853.47Z" fill="white"/>
</svg>
