<svg width="20269" height="2898" viewBox="0 0 20269 2898" fill="none" xmlns="http://www.w3.org/2000/svg">
<path fill-rule="evenodd" clip-rule="evenodd" d="M293.937 254.436C472.888 173.493 682.653 204.814 830.153 334.501L1681 1082.6V710C1681 513.595 1795.99 335.38 1974.94 254.436C2153.89 173.493 2363.65 204.814 2511.15 334.501L4192.15 1812.5C4399.53 1994.84 4419.84 2310.77 4237.5 2518.15C4055.16 2725.53 3739.23 2745.84 3531.85 2563.5L2681 1815.4V2188C2681 2384.41 2566.01 2562.62 2387.06 2643.56C2208.11 2724.51 1998.35 2693.19 1850.85 2563.5L1000 1815.4V2188C1000 2464.14 776.142 2688 500 2688C223.858 2688 0 2464.14 0 2188V710C0 513.595 114.987 335.38 293.937 254.436Z" fill="#0044FF"/>
<path d="M7673.16 374.48C7816.91 374.48 7943.81 403.718 8053.87 462.196C8166.18 518.424 8253.78 606.14 8316.67 725.343C8381.81 842.298 8414.37 992.99 8414.37 1177.42V2216.51H7888.78V1737.45V1258.39C7888.78 1112.19 7858.46 1004.24 7797.82 934.512C7737.17 864.789 7651.82 829.928 7541.76 829.928C7465.39 829.928 7396.88 847.921 7336.24 883.907C7275.59 917.644 7228.42 969.374 7194.73 1039.1C7161.04 1108.82 7144.2 1197.66 7144.2 1305.62V2216.51H6618.6V1258.39C6618.6 1112.19 6588.28 1004.24 6527.64 934.512C6469.24 864.789 6385.01 829.928 6274.95 829.928C6198.58 829.928 6130.07 847.921 6069.43 883.907C6008.78 917.644 5961.62 969.374 5927.92 1039.1C5894.23 1108.82 5877.39 1197.66 5877.39 1305.62V2216.51H5362V401.469H5853.8V897.402L5759.46 752.333C5822.36 628.631 5911.08 535.292 6025.63 472.317C6142.43 407.092 6274.95 374.48 6423.19 374.48C6589.4 374.48 6734.28 417.213 6857.82 502.68C6983.6 585.898 7066.7 714.098 7107.13 887.281L6921.83 836.675C6982.48 694.98 7079.06 582.524 7211.58 499.306C7346.35 416.088 7500.21 374.48 7673.16 374.48Z" fill="#1D1D1D"/>
<path d="M9798.21 2243.5C9591.57 2243.5 9409.63 2203.02 9252.4 2122.05C9097.42 2041.08 8977.26 1930.88 8891.9 1791.43C8806.55 1649.73 8763.87 1488.92 8763.87 1308.99C8763.87 1126.81 8805.43 966 8888.53 826.554C8973.89 684.859 9089.56 574.652 9235.56 495.932C9381.56 414.964 9546.65 374.48 9730.83 374.48C9908.27 374.48 10067.7 412.715 10209.3 489.185C10353 563.406 10466.4 671.364 10549.5 813.059C10632.6 952.505 10674.2 1120.07 10674.2 1315.74C10674.2 1335.98 10673.1 1359.6 10670.8 1386.59C10668.6 1411.33 10666.3 1434.94 10664.1 1457.43H9191.76V1150.43H10387.8L10185.7 1241.52C10185.7 1147.05 10166.6 1064.96 10128.4 995.239C10090.2 925.516 10037.4 871.537 9970.04 833.302C9902.66 792.817 9824.04 772.575 9734.2 772.575C9644.35 772.575 9564.61 792.817 9494.99 833.302C9427.6 871.537 9374.82 926.64 9336.63 998.612C9298.45 1068.34 9279.36 1151.55 9279.36 1248.27V1329.23C9279.36 1428.2 9300.7 1515.91 9343.37 1592.38C9388.29 1666.6 9450.06 1723.96 9528.68 1764.44C9609.54 1802.68 9703.87 1821.79 9811.69 1821.79C9908.27 1821.79 9992.5 1807.17 10064.4 1777.93C10138.5 1748.7 10205.9 1704.84 10266.5 1646.36L10546.2 1949.99C10463.1 2044.46 10358.6 2117.55 10232.8 2169.28C10107.1 2218.76 9962.18 2243.5 9798.21 2243.5Z" fill="#1D1D1D"/>
<path d="M12125.8 374.48C12269.6 374.48 12397.6 403.718 12509.9 462.196C12624.5 518.424 12714.3 606.14 12779.5 725.343C12844.6 842.298 12877.2 992.99 12877.2 1177.42V2216.51H12351.6V1258.39C12351.6 1112.19 12319 1004.24 12253.9 934.512C12191 864.789 12101.1 829.928 11984.3 829.928C11901.2 829.928 11826 847.921 11758.6 883.907C11693.5 917.644 11641.8 970.498 11603.6 1042.47C11567.7 1114.44 11549.7 1206.66 11549.7 1319.11V2216.51H11024.1V401.469H11526.1V904.149L11431.8 752.333C11496.9 630.88 11590.1 537.541 11711.4 472.317C11832.7 407.092 11970.9 374.48 12125.8 374.48Z" fill="#1D1D1D"/>
<path d="M14094.8 2243.5C13881.4 2243.5 13715.2 2189.53 13596.2 2081.57C13477.1 1971.36 13417.6 1808.3 13417.6 1592.38V0H13943.2V1585.63C13943.2 1662.1 13963.4 1721.71 14003.8 1764.44C14044.3 1804.92 14099.3 1825.17 14168.9 1825.17C14252 1825.17 14322.8 1802.68 14381.2 1757.69L14522.7 2128.8C14468.8 2167.03 14403.6 2196.27 14327.3 2216.51C14253.2 2234.51 14175.7 2243.5 14094.8 2243.5ZM13138 846.796V441.953H14394.7V846.796H13138Z" fill="#1D1D1D"/>
<path d="M15624.3 2243.5C15431.1 2243.5 15259.3 2203.02 15108.8 2122.05C14960.6 2041.08 14842.7 1930.88 14755.1 1791.43C14669.7 1649.73 14627 1488.92 14627 1308.99C14627 1126.81 14669.7 966 14755.1 826.554C14842.7 684.859 14960.6 574.652 15108.8 495.932C15259.3 414.964 15431.1 374.48 15624.3 374.48C15815.2 374.48 15985.9 414.964 16136.4 495.932C16286.9 574.652 16404.8 683.735 16490.2 823.18C16575.5 962.626 16618.2 1124.56 16618.2 1308.99C16618.2 1488.92 16575.5 1649.73 16490.2 1791.43C16404.8 1930.88 16286.9 2041.08 16136.4 2122.05C15985.9 2203.02 15815.2 2243.5 15624.3 2243.5ZM15624.3 1811.67C15711.9 1811.67 15790.5 1791.43 15860.1 1750.95C15929.8 1710.46 15984.8 1653.11 16025.2 1578.89C16065.7 1502.42 16085.9 1412.45 16085.9 1308.99C16085.9 1203.28 16065.7 1113.32 16025.2 1039.1C15984.8 964.875 15929.8 907.523 15860.1 867.038C15790.5 826.554 15711.9 806.312 15624.3 806.312C15536.7 806.312 15458.1 826.554 15388.5 867.038C15318.8 907.523 15262.7 964.875 15220 1039.1C15179.6 1113.32 15159.4 1203.28 15159.4 1308.99C15159.4 1412.45 15179.6 1502.42 15220 1578.89C15262.7 1653.11 15318.8 1710.46 15388.5 1750.95C15458.1 1791.43 15536.7 1811.67 15624.3 1811.67Z" fill="#1D1D1D"/>
<path d="M16969.5 2216.51V401.469H17471.5V914.27L17400.8 765.828C17454.7 637.628 17541.2 540.915 17660.2 475.69C17779.3 408.217 17924.1 374.48 18094.8 374.48V860.291C18072.4 858.042 18052.2 856.917 18034.2 856.917C18016.2 854.668 17997.1 853.544 17976.9 853.544C17833.2 853.544 17716.4 895.153 17626.5 978.37C17538.9 1059.34 17495.1 1186.41 17495.1 1359.6V2216.51H16969.5Z" fill="#1D1D1D"/>
<path d="M18699 2898C18604.6 2898 18511.4 2883.38 18419.3 2854.14C18327.2 2824.9 18252 2784.42 18193.6 2732.69L18385.6 2358.21C18426.1 2394.2 18472.1 2422.31 18523.8 2442.55C18577.7 2462.79 18630.5 2472.92 18682.1 2472.92C18756.2 2472.92 18814.6 2454.92 18857.3 2418.94C18902.2 2385.2 18942.7 2327.85 18978.6 2246.88L19072.9 2024.21L19113.4 1966.86L19763.6 401.469H20269L19450.3 2327.85C19391.9 2474.04 19324.5 2588.75 19248.1 2671.96C19174 2755.18 19090.9 2813.66 18998.8 2847.39C18909 2881.13 18809 2898 18699 2898ZM19008.9 2287.36L18200.3 401.469H18742.8L19369.4 1919.63L19008.9 2287.36Z" fill="#1D1D1D"/>
</svg>
