<svg width="4362" height="2485" viewBox="0 0 4362 2485" fill="none" xmlns="http://www.w3.org/2000/svg">
<path fill-rule="evenodd" clip-rule="evenodd" d="M293.937 44.4446C472.888 -36.499 682.653 -5.17783 830.153 124.51L1681 872.607V500.008C1681 303.603 1795.99 125.388 1974.94 44.4446C2153.89 -36.499 2363.65 -5.17783 2511.15 124.51L4192.15 1602.51C4399.53 1784.85 4419.84 2100.78 4237.5 2308.16C4055.16 2515.54 3739.23 2535.85 3531.85 2353.51L2681 1605.41V1978.01C2681 2174.41 2566.01 2352.63 2387.06 2433.57C2208.11 2514.52 1998.35 2483.19 1850.85 2353.51L1000 1605.41V1978.01C1000 2254.15 776.142 2478.01 500 2478.01C223.858 2478.01 0 2254.15 0 1978.01V500.008C0 303.603 114.987 125.388 293.937 44.4446Z" fill="#0044FF"/>
</svg>
