<svg width="4969" height="4058" viewBox="0 0 4969 4058" fill="none" xmlns="http://www.w3.org/2000/svg">
<path fill-rule="evenodd" clip-rule="evenodd" d="M597.433 44.4446C776.384 -36.499 986.149 -5.17783 1133.65 124.51L1984.5 872.607V500.008C1984.5 303.603 2099.48 125.388 2278.43 44.4446C2457.38 -36.499 2667.15 -5.17783 2814.65 124.51L4495.65 1602.51C4703.03 1784.85 4723.33 2100.78 4540.99 2308.16C4358.66 2515.54 4042.73 2535.85 3835.34 2353.51L2984.5 1605.41V1978.01C2984.5 2174.41 2869.51 2352.63 2690.56 2433.57C2511.61 2514.52 2301.84 2483.19 2154.34 2353.51L1303.5 1605.41V1978.01C1303.5 2254.15 1079.64 2478.01 803.496 2478.01C527.354 2478.01 303.496 2254.15 303.496 1978.01V500.008C303.496 303.603 418.483 125.388 597.433 44.4446Z" fill="#0044FF"/>
<path d="M770.384 3105.84C818.301 3105.84 860.603 3115.59 897.29 3135.08C934.725 3153.82 963.925 3183.06 984.888 3222.8C1006.6 3261.78 1017.46 3312.01 1017.46 3373.49V3719.85H842.26V3560.17V3400.48C842.26 3351.75 832.152 3315.76 811.937 3292.52C791.722 3269.28 763.271 3257.66 726.585 3257.66C701.129 3257.66 678.293 3263.66 658.078 3275.65C637.863 3286.9 622.14 3304.14 610.91 3327.38C599.679 3350.62 594.064 3380.24 594.064 3416.22V3719.85H418.867V3400.48C418.867 3351.75 408.759 3315.76 388.544 3292.52C369.078 3269.28 341.001 3257.66 304.315 3257.66C278.859 3257.66 256.023 3263.66 235.808 3275.65C215.593 3286.9 199.87 3304.14 188.64 3327.38C177.409 3350.62 171.794 3380.24 171.794 3416.22V3719.85H0V3114.84H163.933V3280.15L132.487 3231.79C153.451 3190.56 183.025 3159.45 221.209 3138.46C260.141 3116.71 304.315 3105.84 353.729 3105.84C409.134 3105.84 457.425 3120.09 498.604 3148.58C540.532 3176.32 568.234 3219.05 581.71 3276.78L519.942 3259.91C540.157 3212.68 572.351 3175.19 616.525 3147.45C661.447 3119.71 712.734 3105.84 770.384 3105.84Z" fill="#1D1D1D"/>
<path d="M1478.74 3728.85C1409.85 3728.85 1349.21 3715.36 1296.8 3688.37C1245.14 3661.38 1205.08 3624.64 1176.63 3578.16C1148.18 3530.93 1133.96 3477.32 1133.96 3417.35C1133.96 3356.62 1147.81 3303.02 1175.51 3256.53C1203.96 3209.3 1242.52 3172.57 1291.19 3146.33C1339.85 3119.34 1394.88 3105.84 1456.27 3105.84C1515.42 3105.84 1568.58 3118.59 1615.75 3144.08C1663.67 3168.82 1701.48 3204.8 1729.18 3252.04C1756.88 3298.52 1770.73 3354.37 1770.73 3419.6C1770.73 3426.34 1770.36 3434.22 1769.61 3443.21C1768.86 3451.46 1768.11 3459.33 1767.36 3466.83H1276.59V3364.49H1675.27L1607.89 3394.86C1607.89 3363.37 1601.52 3336 1588.8 3312.76C1576.07 3289.52 1558.47 3271.53 1536.01 3258.78C1513.55 3245.29 1487.35 3238.54 1457.4 3238.54C1427.45 3238.54 1400.87 3245.29 1377.66 3258.78C1355.2 3271.53 1337.6 3289.9 1324.88 3313.89C1312.15 3337.13 1305.78 3364.87 1305.78 3397.11V3424.09C1305.78 3457.08 1312.9 3486.32 1327.12 3511.81C1342.1 3536.55 1362.69 3555.67 1388.89 3569.16C1415.84 3581.91 1447.29 3588.28 1483.23 3588.28C1515.42 3588.28 1543.5 3583.41 1567.46 3573.66C1592.16 3563.92 1614.63 3549.3 1634.84 3529.8L1728.05 3631.01C1700.35 3662.5 1665.54 3686.87 1623.61 3704.11C1581.68 3720.6 1533.39 3728.85 1478.74 3728.85Z" fill="#1D1D1D"/>
<path d="M2254.61 3105.84C2302.53 3105.84 2345.2 3115.59 2382.64 3135.08C2420.82 3153.82 2450.77 3183.06 2472.48 3222.8C2494.2 3261.78 2505.05 3312.01 2505.05 3373.49V3719.85H2329.86V3400.48C2329.86 3351.75 2319 3315.76 2297.29 3292.52C2276.32 3269.28 2246.38 3257.66 2207.44 3257.66C2179.74 3257.66 2154.66 3263.66 2132.2 3275.65C2110.49 3286.9 2093.27 3304.52 2080.54 3328.51C2068.56 3352.5 2062.57 3383.24 2062.57 3420.72V3719.85H1887.37V3114.84H2054.71V3282.4L2023.26 3231.79C2044.97 3191.31 2076.05 3160.2 2116.48 3138.46C2156.91 3116.71 2202.95 3105.84 2254.61 3105.84Z" fill="#1D1D1D"/>
<path d="M2910.93 3728.85C2839.81 3728.85 2784.4 3710.86 2744.72 3674.87C2705.04 3638.14 2685.2 3583.78 2685.2 3511.81V2981.02H2860.4V3509.56C2860.4 3535.05 2867.13 3554.92 2880.61 3569.16C2894.09 3582.66 2912.43 3589.41 2935.64 3589.41C2963.34 3589.41 2986.93 3581.91 3006.39 3566.91L3053.56 3690.62C3035.59 3703.36 3013.88 3713.11 2988.42 3719.85C2963.72 3725.85 2937.89 3728.85 2910.93 3728.85ZM2591.99 3263.28V3128.33H3010.89V3263.28H2591.99Z" fill="#1D1D1D"/>
<path d="M3420.77 3728.85C3356.38 3728.85 3299.1 3715.36 3248.94 3688.37C3199.52 3661.38 3160.22 3624.64 3131.02 3578.16C3102.57 3530.93 3088.34 3477.32 3088.34 3417.35C3088.34 3356.62 3102.57 3303.02 3131.02 3256.53C3160.22 3209.3 3199.52 3172.57 3248.94 3146.33C3299.1 3119.34 3356.38 3105.84 3420.77 3105.84C3484.41 3105.84 3541.31 3119.34 3591.47 3146.33C3641.64 3172.57 3680.94 3208.93 3709.39 3255.41C3737.84 3301.89 3752.07 3355.87 3752.07 3417.35C3752.07 3477.32 3737.84 3530.93 3709.39 3578.16C3680.94 3624.64 3641.64 3661.38 3591.47 3688.37C3541.31 3715.36 3484.41 3728.85 3420.77 3728.85ZM3420.77 3584.91C3449.97 3584.91 3476.17 3578.16 3499.38 3564.66C3522.59 3551.17 3540.93 3532.05 3554.41 3507.31C3567.89 3481.82 3574.63 3451.83 3574.63 3417.35C3574.63 3382.11 3567.89 3352.12 3554.41 3327.38C3540.93 3302.64 3522.59 3283.52 3499.38 3270.03C3476.17 3256.53 3449.97 3249.79 3420.77 3249.79C3391.57 3249.79 3365.36 3256.53 3342.15 3270.03C3318.94 3283.52 3300.23 3302.64 3286 3327.38C3272.52 3352.12 3265.79 3382.11 3265.79 3417.35C3265.79 3451.83 3272.52 3481.82 3286 3507.31C3300.23 3532.05 3318.94 3551.17 3342.15 3564.66C3365.36 3578.16 3391.57 3584.91 3420.77 3584.91Z" fill="#1D1D1D"/>
<path d="M3869.17 3719.85V3114.84H4036.51V3285.77L4012.93 3236.29C4030.89 3193.56 4059.72 3161.32 4099.4 3139.58C4139.08 3117.09 4187.37 3105.84 4244.28 3105.84V3267.78C4236.79 3267.03 4230.05 3266.66 4224.06 3266.66C4218.07 3265.91 4211.71 3265.53 4204.97 3265.53C4157.05 3265.53 4118.12 3279.4 4088.17 3307.14C4058.97 3334.13 4044.37 3376.49 4044.37 3434.22V3719.85H3869.17Z" fill="#1D1D1D"/>
<path d="M4445.65 3947.02C4414.21 3947.02 4383.14 3942.14 4352.44 3932.4C4321.74 3922.65 4296.66 3909.16 4277.2 3891.91L4341.21 3767.09C4354.69 3779.08 4370.04 3788.45 4387.26 3795.2C4405.22 3801.95 4422.82 3805.32 4440.04 3805.32C4464.75 3805.32 4484.21 3799.32 4498.44 3787.33C4513.41 3776.08 4526.89 3756.97 4538.87 3729.98L4570.31 3655.75L4583.79 3636.64L4800.54 3114.84H4969L4696.1 3756.97C4676.63 3805.7 4654.17 3843.93 4628.71 3871.67C4604.01 3899.41 4576.3 3918.9 4545.61 3930.15C4515.66 3941.39 4482.34 3947.02 4445.65 3947.02ZM4548.98 3743.47L4279.44 3114.84H4460.25L4669.14 3620.89L4548.98 3743.47Z" fill="#1D1D1D"/>
</svg>
