<svg width="20269" height="2898" viewBox="0 0 20269 2898" fill="none" xmlns="http://www.w3.org/2000/svg">
<path fill-rule="evenodd" clip-rule="evenodd" d="M375.353 311.553C545.674 234.513 745.324 264.324 885.711 387.758L1695.53 1099.78V745.149C1695.53 558.215 1804.97 388.594 1975.29 311.553C2145.61 234.513 2345.26 264.324 2485.65 387.758L4085.59 1794.49C4282.97 1968.03 4302.29 2268.73 4128.75 2466.11C3955.2 2663.49 3654.51 2682.81 3457.13 2509.27L2647.31 1797.25V2151.88C2647.31 2338.81 2537.87 2508.43 2367.54 2585.47C2197.22 2662.51 1997.57 2632.7 1857.19 2509.27L1047.37 1797.25V2151.88C1047.37 2414.7 834.305 2627.77 571.479 2627.77C308.653 2627.77 95.5897 2414.7 95.5897 2151.88V745.149C95.5897 558.215 205.032 388.594 375.353 311.553Z" fill="#0044FF"/>
<path d="M0 2151.9V745.169C0.000158758 517.109 133.52 310.172 341.311 216.183C549.103 122.194 792.676 158.563 963.948 309.152L1599.94 868.34V745.169C1599.94 517.109 1733.46 310.172 1941.25 216.183C2149.04 122.194 2392.61 158.563 2563.89 309.152L4163.83 1715.88C4404.63 1927.61 4428.21 2294.46 4216.48 2535.26C4004.75 2776.07 3637.91 2799.64 3397.1 2587.92L2761.11 2028.73V2151.9C2761.11 2379.96 2627.59 2586.9 2419.8 2680.88C2212.01 2774.87 1968.43 2738.5 1797.16 2587.92L1161.17 2028.73V2151.9C1161.17 2472.55 901.233 2732.48 580.585 2732.48C259.937 2732.48 0 2472.55 0 2151.9ZM1809.33 1099.8C1809.33 1140.93 1785.25 1178.24 1747.78 1195.19C1710.31 1212.14 1666.39 1205.58 1635.5 1178.43L825.686 466.404C716.184 370.126 560.457 346.874 427.607 406.965C294.757 467.057 209.391 599.36 209.391 745.169V2151.9C209.391 2356.9 375.58 2523.09 580.585 2523.09C785.589 2523.09 951.778 2356.9 951.778 2151.9V1797.27C951.778 1756.14 975.856 1718.82 1013.33 1701.88C1050.8 1684.93 1094.72 1691.48 1125.61 1718.64L1935.42 2430.66C2044.92 2526.94 2200.65 2550.19 2333.5 2490.1C2466.35 2430.01 2551.72 2297.71 2551.72 2151.9V1797.27C2551.72 1756.14 2575.79 1718.82 2613.27 1701.88C2650.74 1684.93 2694.66 1691.48 2725.54 1718.64L3535.36 2430.66C3689.32 2566.03 3923.86 2550.96 4059.23 2397C4194.59 2243.04 4179.52 2008.5 4025.56 1873.13L2425.63 466.404C2316.12 370.126 2160.4 346.874 2027.55 406.965C1894.7 467.057 1809.33 599.36 1809.33 745.169V1099.8Z" fill="white"/>
<path d="M7673.16 374.48C7816.91 374.48 7943.81 403.718 8053.87 462.195C8166.18 518.424 8253.78 606.14 8316.67 725.343C8381.81 842.298 8414.37 992.989 8414.37 1177.42V2216.51H7888.78V1737.45V1258.39C7888.78 1112.19 7858.46 1004.24 7797.82 934.512C7737.17 864.789 7651.82 829.928 7541.76 829.928C7465.39 829.928 7396.88 847.921 7336.24 883.907C7275.59 917.644 7228.42 969.374 7194.73 1039.1C7161.04 1108.82 7144.2 1197.66 7144.2 1305.62V2216.51H6618.6V1258.39C6618.6 1112.19 6588.28 1004.24 6527.64 934.512C6469.24 864.789 6385.01 829.928 6274.95 829.928C6198.58 829.928 6130.07 847.921 6069.43 883.907C6008.78 917.644 5961.62 969.374 5927.92 1039.1C5894.23 1108.82 5877.39 1197.66 5877.39 1305.62V2216.51H5362V401.469H5853.8V897.402L5759.46 752.333C5822.36 628.631 5911.08 535.292 6025.63 472.317C6142.43 407.092 6274.95 374.48 6423.19 374.48C6589.4 374.48 6734.28 417.213 6857.82 502.68C6983.6 585.898 7066.7 714.098 7107.13 887.281L6921.83 836.675C6982.48 694.98 7079.06 582.524 7211.58 499.306C7346.35 416.088 7500.21 374.48 7673.16 374.48Z" fill="white"/>
<path d="M9798.21 2243.5C9591.57 2243.5 9409.63 2203.02 9252.4 2122.05C9097.42 2041.08 8977.26 1930.88 8891.9 1791.43C8806.55 1649.73 8763.87 1488.92 8763.87 1308.99C8763.87 1126.81 8805.43 966 8888.53 826.554C8973.89 684.859 9089.56 574.652 9235.56 495.932C9381.56 414.964 9546.65 374.48 9730.83 374.48C9908.27 374.48 10067.7 412.715 10209.3 489.185C10353 563.406 10466.4 671.364 10549.5 813.059C10632.6 952.505 10674.2 1120.07 10674.2 1315.74C10674.2 1335.98 10673.1 1359.6 10670.8 1386.59C10668.6 1411.33 10666.3 1434.94 10664.1 1457.43H9191.76V1150.43H10387.8L10185.7 1241.52C10185.7 1147.05 10166.6 1064.96 10128.4 995.239C10090.2 925.516 10037.4 871.537 9970.04 833.302C9902.66 792.817 9824.04 772.575 9734.2 772.575C9644.35 772.575 9564.61 792.817 9494.99 833.302C9427.6 871.537 9374.82 926.64 9336.63 998.612C9298.45 1068.34 9279.36 1151.55 9279.36 1248.27V1329.23C9279.36 1428.2 9300.7 1515.91 9343.37 1592.38C9388.29 1666.6 9450.06 1723.96 9528.68 1764.44C9609.54 1802.68 9703.87 1821.79 9811.69 1821.79C9908.27 1821.79 9992.5 1807.17 10064.4 1777.93C10138.5 1748.7 10205.9 1704.84 10266.5 1646.36L10546.2 1949.99C10463.1 2044.46 10358.6 2117.55 10232.8 2169.28C10107.1 2218.76 9962.18 2243.5 9798.21 2243.5Z" fill="white"/>
<path d="M12125.8 374.48C12269.6 374.48 12397.6 403.718 12509.9 462.195C12624.5 518.424 12714.3 606.14 12779.5 725.343C12844.6 842.298 12877.2 992.989 12877.2 1177.42V2216.51H12351.6V1258.39C12351.6 1112.19 12319 1004.24 12253.9 934.512C12191 864.789 12101.1 829.928 11984.3 829.928C11901.2 829.928 11826 847.921 11758.6 883.907C11693.5 917.644 11641.8 970.498 11603.6 1042.47C11567.7 1114.44 11549.7 1206.66 11549.7 1319.11V2216.51H11024.1V401.469H11526.1V904.149L11431.8 752.333C11496.9 630.88 11590.1 537.541 11711.4 472.317C11832.7 407.092 11970.9 374.48 12125.8 374.48Z" fill="white"/>
<path d="M14094.8 2243.5C13881.4 2243.5 13715.2 2189.52 13596.2 2081.57C13477.1 1971.36 13417.6 1808.3 13417.6 1592.38V0H13943.2V1585.63C13943.2 1662.1 13963.4 1721.71 14003.8 1764.44C14044.3 1804.92 14099.3 1825.17 14168.9 1825.17C14252 1825.17 14322.8 1802.68 14381.2 1757.69L14522.7 2128.8C14468.8 2167.03 14403.6 2196.27 14327.3 2216.51C14253.2 2234.51 14175.7 2243.5 14094.8 2243.5ZM13138 846.796V441.953H14394.7V846.796H13138Z" fill="white"/>
<path d="M15624.3 2243.5C15431.1 2243.5 15259.3 2203.02 15108.8 2122.05C14960.6 2041.08 14842.7 1930.88 14755.1 1791.43C14669.7 1649.73 14627 1488.92 14627 1308.99C14627 1126.81 14669.7 966 14755.1 826.554C14842.7 684.859 14960.6 574.652 15108.8 495.932C15259.3 414.964 15431.1 374.48 15624.3 374.48C15815.2 374.48 15985.9 414.964 16136.4 495.932C16286.9 574.652 16404.8 683.735 16490.2 823.18C16575.5 962.626 16618.2 1124.56 16618.2 1308.99C16618.2 1488.92 16575.5 1649.73 16490.2 1791.43C16404.8 1930.88 16286.9 2041.08 16136.4 2122.05C15985.9 2203.02 15815.2 2243.5 15624.3 2243.5ZM15624.3 1811.67C15711.9 1811.67 15790.5 1791.43 15860.1 1750.95C15929.8 1710.46 15984.8 1653.11 16025.2 1578.89C16065.7 1502.42 16085.9 1412.45 16085.9 1308.99C16085.9 1203.28 16065.7 1113.32 16025.2 1039.1C15984.8 964.875 15929.8 907.523 15860.1 867.038C15790.5 826.554 15711.9 806.312 15624.3 806.312C15536.7 806.312 15458.1 826.554 15388.5 867.038C15318.8 907.523 15262.7 964.875 15220 1039.1C15179.6 1113.32 15159.4 1203.28 15159.4 1308.99C15159.4 1412.45 15179.6 1502.42 15220 1578.89C15262.7 1653.11 15318.8 1710.46 15388.5 1750.95C15458.1 1791.43 15536.7 1811.67 15624.3 1811.67Z" fill="white"/>
<path d="M16969.5 2216.51V401.469H17471.5V914.27L17400.8 765.828C17454.7 637.628 17541.2 540.915 17660.2 475.69C17779.3 408.217 17924.1 374.48 18094.8 374.48V860.291C18072.4 858.042 18052.2 856.917 18034.2 856.917C18016.2 854.668 17997.1 853.544 17976.9 853.544C17833.2 853.544 17716.4 895.153 17626.5 978.37C17538.9 1059.34 17495.1 1186.41 17495.1 1359.6V2216.51H16969.5Z" fill="white"/>
<path d="M18699 2898C18604.6 2898 18511.4 2883.38 18419.3 2854.14C18327.2 2824.9 18252 2784.42 18193.6 2732.69L18385.6 2358.21C18426.1 2394.2 18472.1 2422.31 18523.8 2442.55C18577.7 2462.79 18630.5 2472.92 18682.1 2472.92C18756.2 2472.92 18814.6 2454.92 18857.3 2418.94C18902.2 2385.2 18942.7 2327.85 18978.6 2246.88L19072.9 2024.21L19113.4 1966.86L19763.6 401.469H20269L19450.3 2327.85C19391.9 2474.04 19324.5 2588.75 19248.1 2671.96C19174 2755.18 19090.9 2813.66 18998.8 2847.39C18909 2881.13 18809 2898 18699 2898ZM19008.9 2287.36L18200.3 401.469H18742.8L19369.4 1919.63L19008.9 2287.36Z" fill="white"/>
</svg>
