<svg width="4582" height="2699" viewBox="0 0 4582 2699" fill="none" xmlns="http://www.w3.org/2000/svg">
<path fill-rule="evenodd" clip-rule="evenodd" d="M403.937 154.447C582.888 73.503 792.653 104.824 940.153 234.512L1791 982.609V610.01C1791 413.605 1905.99 235.39 2084.94 154.447C2263.89 73.503 2473.65 104.824 2621.15 234.512L4302.15 1712.51C4509.53 1894.85 4529.84 2210.78 4347.5 2418.16C4165.16 2625.55 3849.23 2645.85 3641.85 2463.51L2791 1715.41V2088.01C2791 2284.42 2676.01 2462.63 2497.06 2543.57C2318.11 2624.52 2108.35 2593.2 1960.85 2463.51L1110 1715.41V2088.01C1110 2364.15 886.142 2588.01 610 2588.01C333.858 2588.01 110 2364.15 110 2088.01V610.01C110 413.605 224.987 235.39 403.937 154.447Z" fill="#0044FF"/>
<path d="M0 2088.01V610.009C0.000166802 370.395 140.284 152.974 358.604 54.2224C576.923 -44.5288 832.836 -6.31673 1012.79 151.902L1681 739.421V610.009C1681 370.395 1821.28 152.974 2039.6 54.2224C2257.92 -44.5288 2513.84 -6.31673 2693.79 151.902L4374.79 1629.9C4627.79 1852.35 4652.56 2237.79 4430.11 2490.8C4207.66 2743.8 3822.22 2768.57 3569.21 2546.12L2901 1958.6V2088.01C2901 2327.62 2760.72 2545.05 2542.4 2643.8C2324.08 2742.55 2068.16 2704.34 1888.21 2546.12L1220 1958.6V2088.01C1220 2424.9 946.894 2698.01 610 2698.01C273.106 2698.01 0 2424.9 0 2088.01ZM1901 982.609C1901 1025.82 1875.7 1065.03 1836.33 1082.83C1796.96 1100.64 1750.82 1093.75 1718.37 1065.22L867.52 317.121C752.47 215.965 588.853 191.535 449.271 254.671C309.69 317.807 220 456.813 220 610.009V2088.01C220 2303.4 394.609 2478.01 610 2478.01C825.391 2478.01 1000 2303.4 1000 2088.01V1715.41C1000 1672.2 1025.3 1632.99 1064.67 1615.19C1104.04 1597.38 1150.18 1604.27 1182.63 1632.8L2033.48 2380.9C2148.53 2482.06 2312.15 2506.49 2451.73 2443.35C2591.31 2380.21 2681 2241.21 2681 2088.01V1715.41C2681 1672.2 2706.3 1632.99 2745.67 1615.19C2785.04 1597.38 2831.18 1604.27 2863.63 1632.8L3714.48 2380.9C3876.24 2523.12 4122.67 2507.29 4264.89 2345.53C4407.11 2183.77 4391.28 1937.34 4229.52 1795.12L2548.52 317.121C2433.47 215.965 2269.85 191.535 2130.27 254.671C1990.69 317.807 1901 456.813 1901 610.009V982.609Z" fill="white"/>
</svg>
